<svg xmlns="http://www.w3.org/2000/svg" fill="none" viewBox="0 0 32 32">
 <style>
    .caret {
      fill: #191919;
    }
    @media (prefers-color-scheme: dark) {
      .caret {
        fill: white;
      }
    }
  </style>
  <path fill="#1268d1" d="M20 4c0 1.1.9 2 2 2a2 2 0 0 1 2 2v16a2 2 0 0 1-2 2 2 2 0 0 0-2 2 2 2 0 0 1-2 2H2a2 2 0 0 1-2-2V4c0-1.1.9-2 2-2h16a2 2 0 0 1 2 2"/>
  <path class="caret" d="M26 2.5c0 .28.22.5.5.5h1a.5.5 0 0 0 .5-.5c0-.28.22-.5.5-.5H31a1 1 0 1 1 0 2h-2a1 1 0 0 0-1 1v22a1 1 0 0 0 1 1h2a1 1 0 1 1 0 2h-2.5a.5.5 0 0 1-.5-.5.5.5 0 0 0-.5-.5h-1a.5.5 0 0 0-.5.5.5.5 0 0 1-.5.5H23a1 1 0 1 1 0-2h2a1 1 0 0 0 1-1V5a1 1 0 0 0-1-1h-2a1 1 0 1 1 0-2h2.5c.28 0 .5.22.5.5"/>
  <path fill="#fff" d="M5 25V7h3.97v14.25H17V25z"/>
</svg>